<svg width="32" height="32" viewBox="0 0 32 32" fill="none" xmlns="http://www.w3.org/2000/svg">
<path fill-rule="evenodd" clip-rule="evenodd" d="M16 26C21.5228 26 26 21.5228 26 16C26 10.4772 21.5228 6 16 6C10.4772 6 6 10.4772 6 16C6 21.5228 10.4772 26 16 26ZM19.6672 12.3328C18.5569 11.2225 16.7568 11.2225 15.6464 12.3328L15.6464 12.3328L14.9561 13.0231C14.7608 13.2184 14.7608 13.535 14.9561 13.7302C15.1513 13.9255 15.4679 13.9255 15.6632 13.7302L16.3535 13.0399L16.3535 13.0399C17.0734 12.3201 18.2403 12.3201 18.9601 13.0399C19.6799 13.7597 19.6799 14.9266 18.9601 15.6465L18.2698 16.3368C18.0745 16.5321 18.0745 16.8486 18.2698 17.0439C18.465 17.2392 18.7816 17.2392 18.9769 17.0439L19.6672 16.3536C20.7776 15.2432 20.7776 13.4431 19.6672 12.3328ZM17.5962 15.1109C17.7914 14.9157 17.7914 14.5991 17.5962 14.4038C17.4009 14.2086 17.0843 14.2086 16.8891 14.4038L14.4038 16.8891C14.2085 17.0844 14.2085 17.4009 14.4038 17.5962C14.5991 17.7915 14.9156 17.7915 15.1109 17.5962L17.5962 15.1109ZM13.7302 15.6632C13.9255 15.468 13.9255 15.1514 13.7302 14.9561C13.5349 14.7608 13.2183 14.7608 13.0231 14.9561L12.3327 15.6465L12.3327 15.6465C11.2224 16.7568 11.2224 18.5569 12.3327 19.6672C13.443 20.7776 15.2432 20.7776 16.3535 19.6672L17.0439 18.9769C17.2391 18.7816 17.2391 18.4651 17.0439 18.2698C16.8486 18.0745 16.532 18.0745 16.3368 18.2698L15.6464 18.9601C14.9266 19.68 13.7596 19.6799 13.0398 18.9601C12.3201 18.2403 12.3201 17.0734 13.0398 16.3536L13.7302 15.6632Z" fill="white"/>
</svg>
