<svg width="10" height="5" viewBox="0 0 10 5" fill="none" xmlns="http://www.w3.org/2000/svg">
<path d="M3.18006 0.800354C2.54886 0.800354 1.94351 1.0511 1.49718 1.49743C1.05085 1.94375 0.80011 2.5491 0.80011 3.18031C0.80011 3.41931 0.847185 3.65597 0.938646 3.87678C1.03011 4.09759 1.16417 4.29822 1.33316 4.46722C1.50216 4.63622 1.7028 4.77027 1.9236 4.86173C2.14441 4.9532 2.38107 5.00027 2.62007 5.00027H7.37998C7.61898 5.00027 7.85564 4.9532 8.07645 4.86173C8.29726 4.77027 8.49789 4.63622 8.66689 4.46722C8.83589 4.29822 8.96995 4.09759 9.06141 3.87678C9.15287 3.65597 9.19995 3.41931 9.19995 3.18031C9.19995 2.5491 8.9492 1.94375 8.50287 1.49743C8.05655 1.0511 7.4512 0.800354 6.81999 0.800354H3.18006ZM2.20008 3.18031C2.20008 2.9204 2.30333 2.67114 2.48711 2.48736C2.67089 2.30357 2.92016 2.20033 3.18006 2.20033H6.81999C7.0799 2.20033 7.32916 2.30357 7.51294 2.48736C7.69672 2.67114 7.79997 2.9204 7.79997 3.18031C7.79997 3.2917 7.75572 3.39852 7.67696 3.47729C7.5982 3.55605 7.49137 3.6003 7.37998 3.6003H2.62007C2.50869 3.6003 2.40186 3.55605 2.32309 3.47729C2.24433 3.39852 2.20008 3.2917 2.20008 3.18031Z" fill="#222222"/>
</svg>
