<svg width="105" height="30" viewBox="0 0 105 30" fill="none" xmlns="http://www.w3.org/2000/svg">
<rect x="0.375" y="0.375" width="104.25" height="29.25" rx="3.375" fill="#2C2C2C"/>
<rect x="0.375" y="0.375" width="104.25" height="29.25" rx="3.375" fill="url(#paint0_linear_2_1565)"/>
<path d="M38.1529 6.57927C38.1529 7.27832 37.9405 7.83819 37.5221 8.25574C37.041 8.75073 36.4144 8.9998 35.6466 8.9998C34.9127 8.9998 34.2861 8.74655 33.7721 8.24737C33.257 7.74087 33 7.11926 33 6.3752C33 5.63115 33.257 5.00954 33.7721 4.50722C34.2861 4.00386 34.9127 3.75061 35.6466 3.75061C36.0119 3.75061 36.3602 3.82491 36.6926 3.96305C37.024 4.10223 37.2938 4.2906 37.4892 4.52292L37.0452 4.96454C36.7043 4.56792 36.2402 4.37223 35.6466 4.37223C35.1113 4.37223 34.6472 4.55641 34.2532 4.92791C33.8634 5.30046 33.668 5.78289 33.668 6.3752C33.668 6.96752 33.8634 7.45413 34.2532 7.82668C34.6472 8.194 35.1113 8.38237 35.6466 8.38237C36.2147 8.38237 36.6927 8.194 37.0697 7.8225C37.3182 7.57657 37.4594 7.23751 37.4966 6.80426H35.6466V6.19939H38.1147C38.1444 6.3302 38.1529 6.45683 38.1529 6.57927Z" fill="white"/>
<path d="M42.0666 4.48198H39.7482V6.07264H41.8383V6.67751H39.7482V8.26817H42.0666V8.88456H39.0919V3.8656H42.0666V4.48198Z" fill="white"/>
<path d="M44.8291 8.88456H44.1728V4.48198H42.7507V3.8656H46.2522V4.48198H44.8291V8.88456Z" fill="white"/>
<path d="M48.7853 8.88456V3.8656H49.4406V8.88456H48.7853Z" fill="white"/>
<path d="M52.3448 8.88456H51.6938V4.48198H50.2665V3.8656H53.7722V4.48198H52.3448V8.88456Z" fill="white"/>
<path d="M60.4004 8.239C59.898 8.74655 59.2757 8.9998 58.5333 8.9998C57.7867 8.9998 57.1644 8.74655 56.662 8.239C56.1608 7.7325 55.9112 7.11088 55.9112 6.3752C55.9112 5.63952 56.1608 5.01791 56.662 4.51141C57.1644 4.00386 57.7867 3.75061 58.5333 3.75061C59.2714 3.75061 59.8938 4.00386 60.3961 4.51559C60.9016 5.02628 61.1512 5.64371 61.1512 6.3752C61.1512 7.11088 60.9016 7.7325 60.4004 8.239ZM57.1474 7.81831C57.5255 8.194 57.9853 8.38237 58.5333 8.38237C59.0771 8.38237 59.5412 8.194 59.915 7.81831C60.292 7.44262 60.4832 6.96019 60.4832 6.3752C60.4832 5.79022 60.292 5.30779 59.915 4.9321C59.5412 4.55641 59.0771 4.36804 58.5333 4.36804C57.9853 4.36804 57.5255 4.55641 57.1474 4.9321C56.7704 5.30779 56.5792 5.79022 56.5792 6.3752C56.5792 6.96019 56.7704 7.44262 57.1474 7.81831Z" fill="white"/>
<path d="M62.0709 8.88456V3.8656H62.8674L65.3441 7.769H65.3728L65.3441 6.80414V3.8656H65.9994V8.88456H65.3154L62.7219 4.7886H62.6933L62.7219 5.75765V8.88456H62.0709Z" fill="white"/>
<path d="M53.6137 17.0238C51.8268 17.0238 50.367 18.362 50.367 20.2083C50.367 22.0396 51.8268 23.3918 53.6137 23.3918C55.4044 23.3918 56.8642 22.0396 56.8642 20.2083C56.8642 18.362 55.4044 17.0238 53.6137 17.0238ZM53.6137 22.1379C52.6332 22.1379 51.7897 21.3415 51.7897 20.2083C51.7897 19.0601 52.6332 18.2778 53.6137 18.2778C54.5941 18.2778 55.4415 19.0601 55.4415 20.2083C55.4415 21.3415 54.5941 22.1379 53.6137 22.1379ZM46.5297 17.0238C44.739 17.0238 43.2831 18.362 43.2831 20.2083C43.2831 22.0396 44.739 23.3918 46.5297 23.3918C48.3195 23.3918 49.7764 22.0396 49.7764 20.2083C49.7764 18.362 48.3195 17.0238 46.5297 17.0238ZM46.5297 22.1379C45.5483 22.1379 44.7019 21.3415 44.7019 20.2083C44.7019 19.0601 45.5483 18.2778 46.5297 18.2778C47.5102 18.2778 48.3537 19.0601 48.3537 20.2083C48.3537 21.3415 47.5102 22.1379 46.5297 22.1379ZM38.1002 17.9998V19.353H41.3839C41.2879 20.1091 41.0311 20.6649 40.6374 21.0524C40.1581 21.5202 39.4116 22.0396 38.1002 22.0396C36.0793 22.0396 34.4969 20.4347 34.4969 18.4462C34.4969 16.4577 36.0793 14.8528 38.1002 14.8528C39.1929 14.8528 39.9879 15.273 40.5746 15.8176L41.5437 14.864C40.723 14.093 39.6313 13.5006 38.1002 13.5006C35.329 13.5006 33 15.7194 33 18.4462C33 21.1731 35.329 23.3918 38.1002 23.3918C39.598 23.3918 40.723 22.9089 41.6074 22.0031C42.5137 21.1113 42.7962 19.8574 42.7962 18.8449C42.7962 18.5304 42.7695 18.2413 42.722 17.9998H38.1002ZM72.5698 19.0489C72.3025 18.3367 71.478 17.0238 69.7986 17.0238C68.1344 17.0238 66.7488 18.3143 66.7488 20.2083C66.7488 21.9919 68.1201 23.3918 69.9584 23.3918C71.4448 23.3918 72.3025 22.5 72.6554 21.9806L71.5522 21.2573C71.1842 21.7869 70.683 22.1379 69.9584 22.1379C69.2385 22.1379 68.7221 21.8131 68.3911 21.1731L72.7191 19.411L72.5698 19.0489ZM68.1572 20.1091C68.1201 18.8813 69.1262 18.2525 69.8471 18.2525C70.412 18.2525 70.8913 18.5304 71.051 18.9281L68.1572 20.1091ZM64.6395 23.1981H66.0621V13.8403H64.6395V23.1981ZM62.3095 17.7331H62.262C61.9425 17.3607 61.3329 17.0238 60.5607 17.0238C58.9402 17.0238 57.4585 18.4238 57.4585 20.2186C57.4585 22.0031 58.9402 23.3918 60.5607 23.3918C61.3329 23.3918 61.9425 23.0521 62.262 22.6684H62.3095V23.1251C62.3095 24.3426 61.6486 24.9967 60.5825 24.9967C59.7133 24.9967 59.1741 24.3791 58.9516 23.8597L57.7143 24.3678C58.071 25.2119 59.0153 26.2506 60.5825 26.2506C62.2506 26.2506 63.658 25.2849 63.658 22.9351V17.2175H62.3095V17.7331ZM60.6824 22.1379C59.7019 22.1379 58.8812 21.3303 58.8812 20.2186C58.8812 19.0966 59.7019 18.2778 60.6824 18.2778C61.6486 18.2778 62.4103 19.0966 62.4103 20.2186C62.4103 21.3303 61.6486 22.1379 60.6824 22.1379ZM79.2305 13.8403H75.8279V23.1981H77.2467V19.6524H79.2305C80.8063 19.6524 82.3517 18.5304 82.3517 16.7459C82.3517 14.9623 80.8025 13.8403 79.2305 13.8403ZM79.2676 18.3508H77.2467V15.142H79.2676C80.327 15.142 80.9318 16.0076 80.9318 16.7459C80.9318 17.4702 80.327 18.3508 79.2676 18.3508ZM88.0386 17.006C87.0134 17.006 85.9474 17.4515 85.509 18.4387L86.7681 18.9581C87.0391 18.4387 87.5374 18.2703 88.0643 18.2703C88.8003 18.2703 89.5469 18.7054 89.5583 19.4737V19.572C89.3015 19.426 88.7518 19.2098 88.0757 19.2098C86.7196 19.2098 85.3378 19.9444 85.3378 21.3153C85.3378 22.5693 86.4485 23.3768 87.6972 23.3768C88.652 23.3768 89.1788 22.9529 89.5098 22.4598H89.5583V23.1831H90.9287V19.5935C90.9287 17.9343 89.6695 17.006 88.0386 17.006ZM87.8674 22.1341C87.4033 22.1341 86.7567 21.9077 86.7567 21.3415C86.7567 20.6172 87.5631 20.3393 88.2611 20.3393C88.8859 20.3393 89.1788 20.475 89.5583 20.6537C89.447 21.5202 88.6891 22.1341 87.8674 22.1341ZM95.9214 17.211L94.2904 21.2676H94.2419L92.5558 17.211H91.0257L93.5591 22.8799L92.1136 26.0344H93.5962L97.5 17.211H95.9214ZM83.1315 23.1981H84.5542V13.8403H83.1315V23.1981Z" fill="white"/>
<g clip-path="url(#clip0_2_1565)">
<path d="M18.9362 14.2354L11.1771 6.45548L21.049 12.1227L18.9362 14.2354ZM9.15264 5.99817C8.69533 6.23723 8.38989 6.67317 8.38989 7.23904V22.7534C8.38989 23.3192 8.69589 23.7552 9.15264 23.9942L18.174 14.9942L9.15264 5.99817ZM24.1005 13.9294L22.03 12.7307L19.7203 14.9982L22.03 17.2656L24.1427 16.0669C24.7755 15.5646 24.7755 14.4323 24.1005 13.9294ZM11.1776 23.5414L21.0495 17.8742L18.9368 15.7615L11.1776 23.5414Z" fill="white"/>
</g>
<rect x="0.375" y="0.375" width="104.25" height="29.25" rx="3.375" stroke="url(#paint1_linear_2_1565)" stroke-width="0.75"/>
<rect x="0.375" y="0.375" width="104.25" height="29.25" rx="3.375" stroke="url(#paint2_linear_2_1565)" stroke-width="0.75"/>
<defs>
<linearGradient id="paint0_linear_2_1565" x1="96.412" y1="1.00423" x2="67.138" y2="64.1087" gradientUnits="userSpaceOnUse">
<stop stop-color="#5A60E7" stop-opacity="0.35"/>
<stop offset="1" stop-color="#1E1E28" stop-opacity="0"/>
</linearGradient>
<linearGradient id="paint1_linear_2_1565" x1="-3.68196e-06" y1="-4.74889" x2="5.19246" y2="19.9578" gradientUnits="userSpaceOnUse">
<stop stop-color="#6171FF"/>
<stop offset="1" stop-color="#5A60E7" stop-opacity="0"/>
</linearGradient>
<linearGradient id="paint2_linear_2_1565" x1="56.9619" y1="14.0069" x2="69.1643" y2="39.5339" gradientUnits="userSpaceOnUse">
<stop offset="0.4875" stop-color="#6171FF" stop-opacity="0"/>
<stop offset="1" stop-color="#6171FF"/>
</linearGradient>
<clipPath id="clip0_2_1565">
<rect width="18" height="18" fill="white" transform="translate(7.50012 5.99908)"/>
</clipPath>
</defs>
</svg>
